<svg width="41" height="36" viewBox="0 0 41 36" fill="none" xmlns="http://www.w3.org/2000/svg">
<path fill-rule="evenodd" clip-rule="evenodd" d="M19.3919 0.388606C20.036 -0.129531 20.9633 -0.129531 21.6073 0.388583L40.3604 15.4743C40.9313 15.9335 41.1464 16.6951 40.898 17.3771C40.6494 18.0591 39.991 18.5143 39.2528 18.5143H36.5377L35.1492 33.4032C35.0121 34.8742 33.7549 36 32.2495 36H8.75115C7.24572 36 5.98861 34.8742 5.8514 33.4032L4.4629 18.5143H1.74721C1.00907 18.5143 0.350584 18.0591 0.102085 17.3771C-0.146425 16.6952 0.068692 15.9335 0.6395 15.4743L19.3919 0.388606ZM20.4997 3.93109L6.63376 15.0857H7.65198L9.28263 32.5714H18.7525V23.7872C18.7525 23.1561 19.2739 22.6443 19.9172 22.6443H21.082C21.7253 22.6443 22.2467 23.1561 22.2467 23.7872V32.5714H31.718L33.3486 15.0857H34.3661L20.4997 3.93109Z" fill="white"/>
</svg>
