<svg width="54" height="36" viewBox="0 0 54 36" fill="none" xmlns="http://www.w3.org/2000/svg">
<rect x="8.79077" width="45.2093" height="35.1628" rx="8" fill="#E6436D"/>
<rect width="45.2093" height="35.1628" rx="8" fill="#65D2E9"/>
<rect x="4.39526" width="45.2093" height="35.1628" rx="8" fill="white"/>
<path d="M26.0581 9.73267C25.7113 9.73267 25.4302 10.0138 25.4302 10.3606V16.3257H19.4651C19.1183 16.3257 18.8372 16.6068 18.8372 16.9536V18.8373C18.8372 19.1841 19.1183 19.4652 19.4651 19.4652H25.4302V25.4303C25.4302 25.7771 25.7113 26.0582 26.0581 26.0582H27.9418C28.2886 26.0582 28.5697 25.7771 28.5697 25.4303V19.4652H34.5348C34.8816 19.4652 35.1627 19.1841 35.1627 18.8373V16.9536C35.1627 16.6068 34.8816 16.3257 34.5348 16.3257H28.5697V10.3606C28.5697 10.0138 28.2886 9.73267 27.9418 9.73267H26.0581Z" fill="black"/>
</svg>
