<svg width="35" height="36" viewBox="0 0 35 36" fill="none" xmlns="http://www.w3.org/2000/svg">
<path fill-rule="evenodd" clip-rule="evenodd" d="M15.4089 3.46856C8.85152 3.46856 3.48188 8.87027 3.48188 15.6004C3.48188 22.3306 8.85152 27.7323 15.4089 27.7323C18.5706 27.7323 21.4463 26.4829 23.5864 24.4319C25.8932 22.2209 27.3359 19.0862 27.3359 15.6004C27.3359 8.87027 21.9663 3.46856 15.4089 3.46856ZM0 15.6004C0 7.01448 6.86905 0 15.4089 0C23.9488 0 30.8178 7.01448 30.8178 15.6004C30.8178 19.4231 29.4579 22.9304 27.1984 25.6462L34.6675 33.2236C35.1166 33.6793 35.1099 34.4113 34.6526 34.8587L33.8244 35.6687C33.3671 36.1162 32.6322 36.1095 32.1831 35.6538L24.6914 28.0535C22.1126 30.0263 18.8966 31.2009 15.4089 31.2009C6.86905 31.2009 0 24.1864 0 15.6004Z" fill="white"/>
</svg>
