<svg width="27" height="30" viewBox="0 0 27 30" fill="none" xmlns="http://www.w3.org/2000/svg">
<path fill-rule="evenodd" clip-rule="evenodd" d="M22.0226 8.34027C22.0226 12.9465 18.2069 16.6805 13.5 16.6805C8.79311 16.6805 4.97742 12.9465 4.97742 8.34027C4.97742 3.73407 8.79311 0 13.5 0C18.2069 0 22.0226 3.73407 22.0226 8.34027ZM19.0582 8.34027C19.0582 11.3443 16.5697 13.7796 13.5 13.7796C10.4303 13.7796 7.94179 11.3443 7.94179 8.34027C7.94179 5.33622 10.4303 2.90096 13.5 2.90096C16.5697 2.90096 19.0582 5.33622 19.0582 8.34027Z" fill="white"/>
<path d="M0.0304085 28.6075C-0.0806469 28.9636 0.122267 29.336 0.479746 29.4633L1.8629 29.956C2.28274 30.1055 2.73961 29.8591 2.87064 29.4411C4.26527 24.992 8.4966 21.7572 13.5 21.7572C18.5033 21.7572 22.7347 24.992 24.1294 29.4411C24.2604 29.8591 24.7173 30.1055 25.1371 29.956L26.5203 29.4633C26.8777 29.336 27.0806 28.9636 26.9696 28.6075C25.209 22.9626 19.8445 18.8563 13.5 18.8563C7.15549 18.8563 1.79104 22.9626 0.0304085 28.6075Z" fill="white"/>
</svg>
