<svg width="70" height="45" viewBox="0 0 70 45" fill="none" xmlns="http://www.w3.org/2000/svg">
<rect x="11.25" width="57.8571" height="45" rx="8" fill="#E6436D"/>
<rect width="57.8571" height="45" rx="8" fill="#65D2E9"/>
<rect x="5.625" width="57.8571" height="45" rx="8" fill="#161722"/>
<path d="M33.3482 12.4553C32.9044 12.4553 32.5446 12.8151 32.5446 13.2589V20.8928H24.9107C24.4669 20.8928 24.1071 21.2526 24.1071 21.6964V24.1071C24.1071 24.5509 24.4669 24.9107 24.9107 24.9107H32.5446V32.5446C32.5446 32.9884 32.9044 33.3482 33.3482 33.3482H35.7589C36.2027 33.3482 36.5625 32.9884 36.5625 32.5446V24.9107H44.1964C44.6402 24.9107 45 24.5509 45 24.1071V21.6964C45 21.2526 44.6402 20.8928 44.1964 20.8928H36.5625V13.2589C36.5625 12.8151 36.2027 12.4553 35.7589 12.4553H33.3482Z" fill="white"/>
</svg>
