<svg width="38" height="38" viewBox="0 0 38 38" fill="none" xmlns="http://www.w3.org/2000/svg">
<path fill-rule="evenodd" clip-rule="evenodd" d="M32.0286 30.0006C35.7971 26.1098 38 22.0573 38 17.3384C38 7.76256 29.4941 0 18.9999 0C8.50603 0 0 7.76256 0 17.3387C0 26.9149 8.78121 33.4887 19.2754 33.4887V36.6644C19.2754 37.6705 20.2876 38.3181 21.146 37.8387C23.8278 36.3409 28.7975 33.3366 32.0286 30.0006ZM9.7704 15.0003C11.2702 15.0003 12.4859 16.2443 12.4859 17.7766C12.4859 19.312 11.2702 20.5559 9.7704 20.5559C8.27317 20.5559 7.05735 19.312 7.05735 17.7766C7.05735 16.2443 8.27317 15.0003 9.7704 15.0003ZM21.7143 17.7766C21.7143 16.2443 20.4991 15.0003 19 15.0003C17.5011 15.0003 16.2858 16.2443 16.2858 17.7766C16.2858 19.312 17.5012 20.5559 19 20.5559C20.4991 20.5559 21.7143 19.312 21.7143 17.7766ZM28.2292 15.0003C29.7288 15.0003 30.9427 16.2443 30.9427 17.7766C30.9427 19.312 29.7288 20.5559 28.2292 20.5559C26.7297 20.5559 25.5141 19.312 25.5142 17.7766C25.5142 16.2443 26.7298 15.0003 28.2292 15.0003Z" fill="white"/>
</svg>
