<svg width="32" height="33" viewBox="0 0 32 33" fill="none" xmlns="http://www.w3.org/2000/svg">
<path d="M15.9969 32.4609C24.8317 32.4609 31.9937 25.2975 31.9937 16.4609C31.9937 7.62438 24.8317 0.460938 15.9969 0.460938C7.16204 0.460938 0 7.62438 0 16.4609C0 25.2975 7.16204 32.4609 15.9969 32.4609Z" fill="white"/>
<path d="M15.9969 0.460938C7.16128 0.460938 0 7.62362 0 16.4609C0 24.4453 5.84441 31.056 13.4823 32.2665L13.4885 21.096H9.39996V16.4672H13.4885C13.4885 16.4672 13.4697 13.8329 13.4885 12.6601C13.5073 11.4872 13.7394 10.3582 14.3476 9.32962C15.282 7.73652 16.7368 6.95878 18.524 6.73926C19.9914 6.55737 21.4399 6.75808 22.8885 6.95878C22.9888 6.97133 23.039 6.98387 23.1393 7.00269C23.1393 7.00269 23.1456 7.17203 23.1393 7.27866C23.1331 8.39508 23.1393 10.9541 23.1393 10.9541C22.4433 10.9415 21.2894 10.8725 20.5244 10.9917C19.2577 11.1861 18.5303 11.9952 18.5052 13.2685C18.4801 14.2594 18.4927 16.4672 18.4927 16.4672H22.9512L22.2301 21.096H18.4989V32.2665C26.1493 31.0685 32 24.4453 32 16.4609C31.9937 7.62362 24.8325 0.460938 15.9969 0.460938Z" fill="#0075FA"/>
</svg>
