<svg width="42" height="50" viewBox="0 0 42 50" fill="none" xmlns="http://www.w3.org/2000/svg">
<path fill-rule="evenodd" clip-rule="evenodd" d="M0 6.78447C0 3.03751 3.13401 0 7 0H35C38.866 0 42 3.03751 42 6.78446V46.6986C42 49.4408 38.7459 50.9833 36.5126 49.2997L21 37.6059L5.4874 49.2997C3.25408 50.9833 0 49.4408 0 46.6986V6.78447ZM7 5.81526C6.44772 5.81526 6 6.24919 6 6.78447V41.5462L17.9303 32.5528C19.7359 31.1917 22.2642 31.1917 24.0697 32.5528L36 41.5462V6.78446C36 6.24919 35.5523 5.81526 35 5.81526H7Z" fill="white"/>
</svg>
