<svg width="40" height="48" viewBox="0 0 40 48" fill="none" xmlns="http://www.w3.org/2000/svg">
<path fill-rule="evenodd" clip-rule="evenodd" d="M0 6.51309C0 2.91601 2.98477 0 6.66667 0H33.3333C37.0152 0 40 2.91601 40 6.51309V44.8306C40 47.4631 36.9009 48.944 34.7739 47.3278L20 36.1017L5.22609 47.3278C3.09913 48.944 0 47.4631 0 44.8306V6.51309ZM6.66667 5.58265C6.14068 5.58265 5.71429 5.99922 5.71429 6.51309V39.8844L17.0765 31.2507C18.7961 29.944 21.204 29.9441 22.9235 31.2507L34.2857 39.8844V6.51309C34.2857 5.99922 33.8593 5.58265 33.3333 5.58265H6.66667Z" fill="black"/>
</svg>
