<svg width="60" height="52" viewBox="0 0 60 52" fill="none" xmlns="http://www.w3.org/2000/svg">
<path fill-rule="evenodd" clip-rule="evenodd" d="M28.3784 0.561319C29.321 -0.187101 30.678 -0.187101 31.6204 0.561286L59.064 22.3517C59.8994 23.015 60.2142 24.1151 59.8507 25.1003C59.4869 26.0853 58.5234 26.7429 57.4431 26.7429H53.4698L51.4379 48.2491C51.2373 50.3738 49.3974 52 47.1944 52H12.8066C10.6035 52 8.76381 50.3738 8.56302 48.2491L6.53107 26.7429H2.55689C1.47669 26.7429 0.51305 26.0853 0.149393 25.1003C-0.214281 24.1153 0.100525 23.015 0.935854 22.3517L28.3784 0.561319ZM29.9996 5.67823L9.70794 21.7905H11.198L13.5843 47.0476H27.4427V34.3593C27.4427 33.4477 28.2058 32.7085 29.1472 32.7085H30.8517C31.7931 32.7085 32.5562 33.4477 32.5562 34.3593V47.0476H46.4166L48.8029 21.7905H50.2918L29.9996 5.67823Z" fill="white"/>
</svg>
