<svg width="34" height="30" viewBox="0 0 34 30" fill="none" xmlns="http://www.w3.org/2000/svg">
<path fill-rule="evenodd" clip-rule="evenodd" d="M16.0811 0.323838C16.6153 -0.107943 17.3842 -0.107943 17.9182 0.323819L33.4696 12.8952C33.943 13.2779 34.1214 13.9126 33.9154 14.481C33.7093 15.0492 33.1632 15.4286 32.5511 15.4286H30.2996L29.1481 27.836C29.0345 29.0618 27.9919 30 26.7435 30H7.25705C6.00864 30 4.96616 29.0618 4.85238 27.836L3.70094 15.4286H1.44891C0.836793 15.4286 0.290728 15.0492 0.0846561 14.481C-0.121426 13.9127 0.0569641 13.2779 0.530317 12.8952L16.0811 0.323838ZM16.9998 3.2759L5.50117 12.5714H6.34555L7.69779 27.1429H15.5508V19.8227C15.5508 19.2968 15.9833 18.8703 16.5167 18.8703H17.4826C18.0161 18.8703 18.4485 19.2968 18.4485 19.8227V27.1429H26.3027L27.655 12.5714H28.4987L16.9998 3.2759Z" fill="#BEB3B3"/>
</svg>
