<svg width="72" height="63" viewBox="0 0 72 63" fill="none" xmlns="http://www.w3.org/2000/svg">
<path fill-rule="evenodd" clip-rule="evenodd" d="M34.0541 0.68006C35.1853 -0.22668 36.8136 -0.22668 37.9445 0.68002L70.8769 27.08C71.8793 27.8836 72.2571 29.2164 71.8208 30.41C71.3843 31.6034 70.228 32.4 68.9317 32.4H64.1638L61.7255 58.4556C61.4847 61.0298 59.2769 63 56.6332 63H15.3679C12.7242 63 10.5166 61.0298 10.2756 58.4556L7.83729 32.4H3.06827C1.77203 32.4 0.61566 31.6034 0.179272 30.41C-0.257137 29.2166 0.12063 27.8836 1.12302 27.08L34.0541 0.68006ZM35.9995 6.8794L11.6495 26.4H13.4376L16.3012 57H32.9312V41.6276C32.9312 40.5232 33.8469 39.6276 34.9766 39.6276H37.022C38.1517 39.6276 39.0674 40.5232 39.0674 41.6276V57H55.6999L58.5635 26.4H60.3501L35.9995 6.8794Z" fill="black"/>
</svg>
