<svg width="36" height="33" viewBox="0 0 36 33" fill="none" xmlns="http://www.w3.org/2000/svg">
<path fill-rule="evenodd" clip-rule="evenodd" d="M18.7437 0.274153C18.3129 -0.0913824 17.6871 -0.091386 17.2563 0.274152L0.560415 14.4404C-0.55251 15.3847 0.103308 17.2291 1.55201 17.2291H4.09744L4.72474 30.0033C4.80718 31.682 6.16796 33 7.81873 33H15.2894C15.931 33 16.4511 32.4704 16.4511 31.8172V21.9603C16.4511 21.5248 16.7978 21.1718 17.2255 21.1718H18.7745C19.2022 21.1718 19.5489 21.5248 19.5489 21.9603V31.8172C19.5489 32.4704 20.069 33 20.7106 33H28.1813C29.832 33 31.1928 31.682 31.2753 30.0033L31.9026 17.2291H34.448C35.8967 17.2291 36.5525 15.3847 35.4396 14.4404L18.7437 0.274153Z" fill="white"/>
</svg>
