<svg width="36" height="37" viewBox="0 0 36 37" fill="none" xmlns="http://www.w3.org/2000/svg">
<path fill-rule="evenodd" clip-rule="evenodd" d="M32.4123 27.5219H22.5292L17.9999 33.0637L13.4703 27.5219H3.58767L3.65061 3.58982H32.349L32.4123 27.5219ZM33.0117 31.1117H24.2286L20.3129 35.9029C19.1173 37.3657 16.8828 37.3657 15.6871 35.9029L11.7709 31.1117H2.98842C1.33488 31.1117 -0.00434651 29.7677 1.06016e-05 28.1124L0.0661024 2.98364C0.0704237 1.33455 1.40711 0 3.05451 0H32.945C34.5924 0 35.929 1.33452 35.9335 2.98357L36 28.1122C36.0045 29.7675 34.6652 31.1117 33.0117 31.1117ZM12.0226 14.3593C11.3624 14.3593 10.8272 14.8951 10.8272 15.5559V16.7524C10.8272 17.4133 11.3624 17.9491 12.0226 17.9491H23.9761C24.6364 17.9491 25.1716 17.4133 25.1716 16.7524V15.5559C25.1716 14.8951 24.6364 14.3593 23.9761 14.3593H12.0226Z" fill="black"/>
</svg>
