<svg width="57" height="51" viewBox="0 0 57 51" fill="none" xmlns="http://www.w3.org/2000/svg">
<path fill-rule="evenodd" clip-rule="evenodd" d="M28.5 5.39165C35.2824 -1.68705 45.5085 -1.69601 52.0153 4.77892C58.6615 11.3929 58.6615 22.1093 52.0153 28.7231L30.4253 50.2076C29.9159 50.7146 29.2228 51 28.5 51C27.7772 51 27.0843 50.7146 26.5747 50.2076L4.98481 28.7231C-1.6616 22.1093 -1.6616 11.3929 4.98481 4.77892C11.4915 -1.69601 21.7177 -1.68705 28.5 5.39165ZM48.1647 8.56303C43.7239 4.14383 36.6634 4.12325 31.9015 9.67928L31.8318 9.76038L28.5 13.0759L25.1682 9.76038L25.0987 9.67928C20.3367 4.12325 13.2763 4.14383 8.83541 8.56303C4.29299 13.0832 4.29299 20.4189 8.83541 24.9392L28.5 44.5077L48.1647 24.9392C52.7072 20.4189 52.7072 13.0832 48.1647 8.56303Z" fill="white"/>
</svg>
