<svg width="30" height="31" viewBox="0 0 30 31" fill="none" xmlns="http://www.w3.org/2000/svg">
<path d="M9.75 12.0807C9.33579 12.0807 9 12.4188 9 12.8358V14.3459C9 14.7629 9.33579 15.1009 9.75 15.1009H20.25C20.6642 15.1009 21 14.7629 21 14.3459V12.8358C21 12.4188 20.6642 12.0807 20.25 12.0807H9.75Z" fill="white"/>
<path fill-rule="evenodd" clip-rule="evenodd" d="M3 0C1.34315 0 0 1.35218 0 3.02018V22.6514C0 24.3194 1.34315 25.6716 3 25.6716H9.8101L13.8568 30.4675C14.4558 31.1775 15.5442 31.1775 16.1432 30.4675L20.1899 25.6716H27C28.6569 25.6716 30 24.3194 30 22.6514V3.02018C30 1.35218 28.6569 0 27 0H3ZM3 22.6514V3.02018H27V22.6514H19.5055C19.0644 22.6514 18.6457 22.8468 18.3607 23.1857L15 27.1817L11.6393 23.1857C11.3543 22.8468 10.9355 22.6514 10.4945 22.6514H3Z" fill="white"/>
</svg>
