<svg width="54" height="63" viewBox="0 0 54 63" fill="none" xmlns="http://www.w3.org/2000/svg">
<path fill-rule="evenodd" clip-rule="evenodd" d="M27 6.17716C20.7574 6.17716 15.6969 11.2474 15.6969 17.5019C15.6969 23.7565 20.7574 28.8267 27 28.8267C33.2426 28.8267 38.3031 23.7565 38.3031 17.5019C38.3031 11.2474 33.2426 6.17716 27 6.17716ZM9.53154 17.5019C9.53154 7.83593 17.3525 0 27 0C36.6475 0 44.4685 7.83593 44.4685 17.5019C44.4685 27.168 36.6475 35.0039 27 35.0039C17.3525 35.0039 9.53154 27.168 9.53154 17.5019ZM27 45.2992C17.0239 45.2992 8.62421 52.0845 6.15643 61.3005C5.86234 62.3988 4.81238 63.1596 3.69296 62.9714L1.66621 62.6308C0.546793 62.4426 -0.215861 61.3773 0.0547976 60.273C3.02937 48.1299 13.9619 39.122 27 39.122C40.038 39.122 50.9706 48.1299 53.9452 60.273C54.2159 61.3773 53.4532 62.4426 52.3338 62.6308L50.307 62.9714C49.1876 63.1596 48.1377 62.3988 47.8436 61.3005C45.3758 52.0845 36.9761 45.2992 27 45.2992Z" fill="#140000"/>
</svg>
