<svg width="43" height="50" viewBox="0 0 43 50" fill="none" xmlns="http://www.w3.org/2000/svg">
<path fill-rule="evenodd" clip-rule="evenodd" d="M21.5 4.90251C16.529 4.90251 12.4994 8.92648 12.4994 13.8904C12.4994 18.8544 16.529 22.8784 21.5 22.8784C26.471 22.8784 30.5006 18.8544 30.5006 13.8904C30.5006 8.92648 26.471 4.90251 21.5 4.90251ZM7.58993 13.8904C7.58993 6.21899 13.8177 0 21.5 0C29.1823 0 35.4101 6.21899 35.4101 13.8904C35.4101 21.5619 29.1823 27.7809 21.5 27.7809C13.8177 27.7809 7.58993 21.5619 7.58993 13.8904ZM21.5 35.9517C13.556 35.9517 6.86742 41.3369 4.90234 48.6512C4.66816 49.5228 3.83208 50.1266 2.94069 49.9773L1.3268 49.707C0.435409 49.5576 -0.171889 48.7121 0.0436351 47.8357C2.41227 38.1984 11.1178 31.0492 21.5 31.0492C31.8821 31.0492 40.5877 38.1984 42.9564 47.8357C43.1719 48.7121 42.5646 49.5576 41.6732 49.707L40.0593 49.9773C39.1679 50.1266 38.3318 49.5228 38.0977 48.6512C36.1326 41.3369 29.444 35.9517 21.5 35.9517Z" fill="white"/>
</svg>
