<svg width="22" height="18" viewBox="0 0 22 18" fill="none" xmlns="http://www.w3.org/2000/svg">
<path fill-rule="evenodd" clip-rule="evenodd" d="M4.04496 0.292755C4.20187 0.132227 4.46013 0.132228 4.61705 0.292755L8.45702 4.22118C8.57098 4.33776 8.57098 4.524 8.45702 4.64058L7.36062 5.76223C7.24294 5.88263 7.04924 5.88263 6.93155 5.76223L5.40291 4.19838V13.9791C5.40291 14.9885 6.20277 15.8068 7.18944 15.8068H9.03326C9.19895 15.8068 9.33326 15.9411 9.33326 16.1068V17.7C9.33326 17.8657 9.19895 18 9.03326 18H7.18944C5.01876 18 3.25909 16.1998 3.25909 13.9791V4.19838L1.73045 5.76223C1.61276 5.88263 1.41907 5.88263 1.30138 5.76223L0.204982 4.64058C0.0910264 4.524 0.0910267 4.33776 0.204982 4.22117L4.04496 0.292755Z" fill="#161823" fill-opacity="0.5"/>
<path fill-rule="evenodd" clip-rule="evenodd" d="M17.3462 17.7072C17.1892 17.8678 16.931 17.8678 16.7741 17.7072L12.9341 13.7788C12.8201 13.6622 12.8201 13.476 12.9341 13.3594L14.0305 12.2378C14.1482 12.1174 14.3419 12.1174 14.4596 12.2378L15.9882 13.8016V4.02089C15.9882 3.01149 15.1883 2.19322 14.2017 2.19322H12.3579C12.1922 2.19322 12.0579 2.0589 12.0579 1.89322V0.300013C12.0579 0.134327 12.1922 1.14441e-05 12.3579 1.14441e-05H14.2017C16.3723 1.14441e-05 18.132 1.80022 18.132 4.02089V13.8016L19.6607 12.2378C19.7784 12.1174 19.972 12.1174 20.0897 12.2378L21.1861 13.3594C21.3001 13.476 21.3001 13.6622 21.1861 13.7788L17.3462 17.7072Z" fill="#161823" fill-opacity="0.5"/>
</svg>
