<svg width="35" height="29" viewBox="0 0 35 29" fill="none" xmlns="http://www.w3.org/2000/svg">
<path fill-rule="evenodd" clip-rule="evenodd" d="M6.69173 0.292633C6.84864 0.132105 7.1069 0.132105 7.26382 0.292633L13.7506 6.92879C13.8645 7.04537 13.8645 7.23161 13.7506 7.34819L11.7278 9.41759C11.6101 9.53799 11.4164 9.53799 11.2987 9.41759L8.70475 6.76391V22.5219C8.70475 24.1481 9.99342 25.4665 11.5831 25.4665H14.737C14.9027 25.4665 15.037 25.6008 15.037 25.7665V28.7C15.037 28.8657 14.9027 29 14.737 29H11.5831C8.08584 29 5.25079 26.0996 5.25079 22.5219V6.76391L2.65686 9.41759C2.53917 9.53799 2.34547 9.53799 2.22779 9.41759L0.204982 7.34819C0.0910264 7.23161 0.0910257 7.04537 0.204981 6.92879L6.69173 0.292633Z" fill="black"/>
<path fill-rule="evenodd" clip-rule="evenodd" d="M27.6786 28.7074C27.5217 28.8679 27.2635 28.8679 27.1065 28.7074L20.6198 22.0712C20.5058 21.9546 20.5058 21.7684 20.6198 21.6518L22.6426 19.5824C22.7603 19.462 22.954 19.462 23.0717 19.5824L25.6656 22.2361V6.47814C25.6656 4.85188 24.3769 3.53354 22.7873 3.53354H19.6333C19.4677 3.53354 19.3333 3.39922 19.3333 3.23354V0.300018C19.3333 0.134333 19.4677 1.71661e-05 19.6333 1.71661e-05H22.7873C26.2845 1.71661e-05 29.1196 2.90037 29.1196 6.47814V22.2361L31.7135 19.5824C31.8312 19.462 32.0249 19.462 32.1426 19.5824L34.1654 21.6518C34.2793 21.7684 34.2793 21.9546 34.1654 22.0712L27.6786 28.7074Z" fill="black"/>
</svg>
