<svg width="29" height="30" viewBox="0 0 29 30" fill="none" xmlns="http://www.w3.org/2000/svg">
<path fill-rule="evenodd" clip-rule="evenodd" d="M20.4099 23.3246C18.2794 24.9396 15.6352 25.8964 12.7703 25.8964C5.71762 25.8964 0 20.0992 0 12.9482C0 5.79726 5.71762 0 12.7703 0C19.8231 0 25.5407 5.79726 25.5407 12.9482C25.5407 16.1575 24.3892 19.0943 22.4822 21.3566L28.7922 27.7545C29.0693 28.0355 29.0693 28.4911 28.7922 28.7717L27.7889 29.7893C27.5118 30.0702 27.0625 30.0702 26.7857 29.7893L20.4099 23.3246ZM22.7028 12.9482C22.7028 18.5101 18.2559 23.019 12.7703 23.019C7.28481 23.019 2.83785 18.5101 2.83785 12.9482C2.83785 7.38628 7.28481 2.87738 12.7703 2.87738C18.2559 2.87738 22.7028 7.38628 22.7028 12.9482Z" fill="white"/>
</svg>
