<svg width="32" height="33" viewBox="0 0 32 33" fill="none" xmlns="http://www.w3.org/2000/svg">
<path fill-rule="evenodd" clip-rule="evenodd" d="M14.0882 3.17952C8.09282 3.17952 3.18343 8.13108 3.18343 14.3004C3.18343 20.4697 8.09282 25.4213 14.0882 25.4213C16.9788 25.4213 19.608 24.276 21.5647 22.3959C23.6738 20.3692 24.9928 17.4957 24.9928 14.3004C24.9928 8.13108 20.0834 3.17952 14.0882 3.17952ZM0 14.3004C0 6.42994 6.28028 0 14.0882 0C21.8961 0 28.1763 6.42994 28.1763 14.3004C28.1763 17.8046 26.9329 21.0196 24.8671 23.509L31.696 30.455C32.1066 30.8727 32.1005 31.5437 31.6824 31.9538L30.9251 32.6964C30.5071 33.1065 29.8351 33.1004 29.4246 32.6827L22.575 25.7157C20.2172 27.5241 17.2769 28.6008 14.0882 28.6008C6.28028 28.6008 0 22.1709 0 14.3004Z" fill="#151923"/>
</svg>
