<svg width="31" height="31" viewBox="0 0 31 31" fill="none" xmlns="http://www.w3.org/2000/svg">
<circle cx="15.5" cy="15.5" r="15.5" fill="#EA4359"/>
<path d="M16.9763 9.59533C16.9763 8.78005 16.3154 8.11914 15.5001 8.11914C14.6848 8.11914 14.0239 8.78005 14.0239 9.59533V14.0239H9.59534C8.78007 14.0239 8.11915 14.6848 8.11915 15.5001C8.11915 16.3154 8.78007 16.9763 9.59534 16.9763H14.0239V21.4049C14.0239 22.2201 14.6848 22.881 15.5001 22.881C16.3154 22.881 16.9763 22.2201 16.9763 21.4049V16.9763H21.4049C22.2201 16.9763 22.8811 16.3154 22.8811 15.5001C22.8811 14.6848 22.2201 14.0239 21.4049 14.0239H16.9763V9.59533Z" fill="white"/>
</svg>
