<svg width="32" height="33" viewBox="0 0 32 33" fill="none" xmlns="http://www.w3.org/2000/svg">
<path fill-rule="evenodd" clip-rule="evenodd" d="M16 32.4609C24.8366 32.4609 32 25.2975 32 16.4609C32 7.62438 24.8366 0.460938 16 0.460938C7.16344 0.460938 0 7.62438 0 16.4609C0 25.2975 7.16344 32.4609 16 32.4609Z" fill="black"/>
<path d="M13.549 13.9446V13.054C13.2676 13.0138 12.9827 12.9883 12.6944 12.9883C9.19036 12.9883 6.3418 16.0216 6.3418 19.7448C6.3418 22.0298 7.41602 24.0557 9.05308 25.2785C7.99602 24.0703 7.36797 22.4532 7.36797 20.6756C7.36453 17.0035 10.1136 14.0286 13.549 13.9446Z" fill="#25F4EE"/>
<path d="M13.8822 24.0495C15.4437 24.0495 16.7376 22.6763 16.796 20.9934L16.8097 5.97393H19.3151L19.3116 5.95154C19.2602 5.64182 19.2293 5.32464 19.2293 5H15.7801L15.7732 20.0418C15.7149 21.7247 14.4416 23.0793 12.8766 23.0793C12.3893 23.0793 11.9328 22.9487 11.5312 22.7173C12.0598 23.5084 12.9144 24.0495 13.8822 24.0495Z" fill="#25F4EE"/>
<path d="M24.2157 10.8371V10.054C23.2589 10.054 22.3668 9.77529 21.6211 9.30078C22.2851 10.0474 23.1908 10.6248 24.2157 10.8371Z" fill="#25F4EE"/>
<path d="M21.6213 9.30164C20.8226 8.39595 20.3375 7.21414 20.3375 5.92188H19.3149C19.5799 7.33563 20.4457 8.5469 21.6213 9.30164Z" fill="#FE2C55"/>
<path d="M12.791 16.6371C11.1539 16.6371 9.80127 18.0575 9.80127 19.7679C9.80127 20.9607 10.4688 21.9957 11.4138 22.5132C11.0625 22.003 10.8517 21.3791 10.8517 20.7038C10.8517 18.9934 12.1832 17.5988 13.8239 17.5988C14.1296 17.5988 14.4247 17.6501 14.7022 17.7419V13.9762C14.4141 13.9358 14.1225 13.9102 13.8239 13.9102C13.7712 13.9102 13.722 13.9138 13.6693 13.9138H13.6553L13.6447 16.7656C13.3672 16.6775 13.0967 16.6371 12.791 16.6371Z" fill="#FE2C55"/>
<path d="M24.0603 10.8397L24.0427 10.8359V13.7642C22.2123 13.7642 20.5152 13.116 19.1301 12.0494V19.794C19.1301 23.6419 16.2372 26.751 12.657 26.751C11.2719 26.751 9.992 26.3025 8.93652 25.5073C10.1217 26.8754 11.8119 27.7346 13.6844 27.7346C17.2646 27.7346 20.175 24.6029 20.175 20.7588V13.0519C21.5601 14.1184 23.2538 14.7478 25.0807 14.7478V10.9565C24.737 10.9565 24.3934 10.9151 24.0603 10.8397Z" fill="#FE2C55"/>
<path d="M19.2679 19.9041V12.2727C20.665 13.3293 22.3733 13.9528 24.216 13.9528V11.0331C23.1514 10.7942 22.2106 10.1893 21.5209 9.34928C20.4068 8.5839 19.6003 7.35556 19.3492 5.92188H16.7461L16.739 20.9719C16.6789 22.6557 15.3667 24.011 13.7538 24.011C12.7564 24.011 11.8722 23.492 11.3311 22.6968C10.3796 22.1666 9.72884 21.1137 9.72884 19.9041C9.72884 18.1642 11.0693 16.7455 12.7211 16.7455C13.0288 16.7455 13.3259 16.7977 13.6018 16.8911V13.9453C10.0613 14.0312 7.20703 17.0964 7.20703 20.8524C7.20703 22.6706 7.87551 24.3246 8.96487 25.5604C10.0295 26.3482 11.324 26.8149 12.7175 26.8149C16.3287 26.8186 19.2679 23.716 19.2679 19.9041Z" fill="white"/>
</svg>
