<svg width="119" height="42" viewBox="0 0 119 42" fill="none" xmlns="http://www.w3.org/2000/svg">
<g clip-path="url(#clip0)">
<path d="M10.3754 16.842V15.7233C9.99211 15.6721 9.60246 15.6401 9.20003 15.6401C4.40288 15.6338 0.5 19.5399 0.5 24.3475C0.5 27.2947 1.96917 29.9031 4.21764 31.4822C2.76763 29.9287 1.87974 27.8381 1.87974 25.5494C1.87974 20.8121 5.67403 16.9507 10.3754 16.842Z" fill="#25F4EE"/>
<path d="M10.5866 29.5259C12.7265 29.5259 14.4767 27.819 14.5533 25.6965L14.5597 6.72826H18.0219C17.9516 6.33829 17.9133 5.93552 17.9133 5.52637H13.1864L13.18 24.4946C13.1033 26.6171 11.3531 28.324 9.21323 28.324C8.54891 28.324 7.92292 28.1578 7.36719 27.8637C8.08261 28.8675 9.25794 29.5259 10.5866 29.5259Z" fill="#25F4EE"/>
<path d="M24.4917 13.1661V12.1112C23.1694 12.1112 21.943 11.7212 20.9082 11.0436C21.828 12.0984 23.0736 12.8656 24.4917 13.1661Z" fill="#25F4EE"/>
<path d="M20.9082 11.0435C19.8989 9.88632 19.2921 8.37756 19.2921 6.72815H18.0273C18.3531 8.53099 19.4262 10.0781 20.9082 11.0435Z" fill="#FE2C55"/>
<path d="M9.20654 20.3647C7.01556 20.3647 5.2334 22.1483 5.2334 24.3412C5.2334 25.8691 6.10212 27.1989 7.36689 27.8637C6.8942 27.2116 6.61314 26.4125 6.61314 25.5431C6.61314 23.3502 8.3953 21.5666 10.5863 21.5666C10.9951 21.5666 11.3911 21.6369 11.7616 21.752V16.9188C11.3784 16.8677 10.9887 16.8357 10.5863 16.8357C10.516 16.8357 10.4521 16.8421 10.3819 16.8421V20.5501C10.005 20.435 9.61535 20.3647 9.20654 20.3647Z" fill="#FE2C55"/>
<path d="M24.4923 13.166V16.842C22.0394 16.842 19.7654 16.0557 17.913 14.7259V24.3475C17.913 29.1487 14.0101 33.0612 9.20656 33.0612C7.35413 33.0612 5.62945 32.4731 4.21777 31.4822C5.80831 33.1891 8.07594 34.2631 10.5863 34.2631C15.3835 34.2631 19.2927 30.357 19.2927 25.5494V15.9278C21.1452 17.2576 23.4192 18.0439 25.872 18.0439V13.3131C25.393 13.3131 24.933 13.2619 24.4923 13.166Z" fill="#FE2C55"/>
<path d="M17.913 24.3474V14.7259C19.7654 16.0556 22.0394 16.842 24.4923 16.842V13.166C23.0742 12.8655 21.8286 12.0983 20.9088 11.0435C19.4269 10.0781 18.3601 8.53099 18.0216 6.72815H14.5594L14.5531 25.6964C14.4764 27.8189 12.7262 29.5258 10.5863 29.5258C9.25766 29.5258 8.08872 28.8673 7.36052 27.87C6.09576 27.1988 5.22703 25.8754 5.22703 24.3474C5.22703 22.1546 7.0092 20.371 9.20017 20.371C9.60899 20.371 10.005 20.4413 10.3755 20.5564V16.8484C5.67417 16.9507 1.87988 20.8121 1.87988 25.5493C1.87988 27.8381 2.76777 29.9222 4.21778 31.4821C5.62946 32.473 7.35413 33.0612 9.20656 33.0612C14.0037 33.0612 17.913 29.1486 17.913 24.3474Z" fill="white"/>
<path d="M30.5469 13.1788H45.3216L43.9674 17.411H40.1348V33.0549H35.3568V17.411L30.5533 17.4174L30.5469 13.1788Z" fill="white"/>
<path d="M69.5312 13.1788H84.6509L83.2967 17.411H79.1256V33.0549H74.3412V17.411L69.5376 17.4174L69.5312 13.1788Z" fill="white"/>
<path d="M46.2285 19.5016H50.9618V33.0549H46.2541L46.2285 19.5016Z" fill="white"/>
<path d="M52.8462 13.1277H57.5795V22.3848L62.2681 17.7754H67.9148L61.9806 23.5356L68.6238 33.0549H63.4115L58.9784 26.4572L57.5731 27.819V33.0549H52.8398V13.1277H52.8462Z" fill="white"/>
<path d="M102.99 13.1277H107.724V22.3848L112.412 17.7754H118.059L112.125 23.5356L118.768 33.0549H113.562L109.129 26.4572L107.724 27.819V33.0549H102.99V13.1277Z" fill="white"/>
<path d="M48.5916 17.9544C49.9075 17.9544 50.9742 16.8868 50.9742 15.5698C50.9742 14.2528 49.9075 13.1852 48.5916 13.1852C47.2757 13.1852 46.209 14.2528 46.209 15.5698C46.209 16.8868 47.2757 17.9544 48.5916 17.9544Z" fill="white"/>
<path d="M84.0436 24.942C84.0436 20.6779 87.3332 17.1808 91.5172 16.8548C91.3064 16.8356 91.0189 16.8292 90.8081 16.8292C86.3304 16.8292 82.7021 20.4605 82.7021 24.942C82.7021 29.4236 86.3304 33.0548 90.8081 33.0548C91.0189 33.0548 91.3064 33.042 91.5172 33.0293C87.3396 32.7032 84.0436 29.2062 84.0436 24.942Z" fill="#25F4EE"/>
<path d="M93.357 16.8292C93.1398 16.8292 92.8524 16.842 92.6416 16.8548C96.8192 17.1808 100.109 20.6779 100.109 24.942C100.109 29.2062 96.8192 32.7032 92.6416 33.0293C92.8524 33.0484 93.1398 33.0548 93.357 33.0548C97.8348 33.0548 101.463 29.4236 101.463 24.942C101.463 20.4605 97.8348 16.8292 93.357 16.8292Z" fill="#FE2C55"/>
<path d="M92.0796 28.8866C89.9014 28.8866 88.1384 27.1221 88.1384 24.942C88.1384 22.762 89.9014 20.9975 92.0796 20.9975C94.2578 20.9975 96.0208 22.762 96.0208 24.942C96.0208 27.1221 94.2514 28.8866 92.0796 28.8866ZM92.0796 16.8292C87.6018 16.8292 83.9736 20.4605 83.9736 24.942C83.9736 29.4236 87.6018 33.0548 92.0796 33.0548C96.5574 33.0548 100.186 29.4236 100.186 24.942C100.186 20.4605 96.5574 16.8292 92.0796 16.8292Z" fill="white"/>
</g>
<defs>
<clipPath id="clip0">
<rect width="118" height="42" fill="white" transform="translate(0.5)"/>
</clipPath>
</defs>
</svg>