<svg width="32" height="33" viewBox="0 0 32 33" fill="none" xmlns="http://www.w3.org/2000/svg">
<path fill-rule="evenodd" clip-rule="evenodd" d="M16 32.4609C24.8366 32.4609 32 25.2975 32 16.4609C32 7.62438 24.8366 0.460938 16 0.460938C7.16344 0.460938 0 7.62438 0 16.4609C0 25.2975 7.16344 32.4609 16 32.4609Z" fill="#55ACEE"/>
<path fill-rule="evenodd" clip-rule="evenodd" d="M25.5721 9.6014C25.0466 9.95196 23.84 10.4614 23.2449 10.4614V10.4624C22.5654 9.7232 21.6088 9.26172 20.5479 9.26172C18.4874 9.26172 16.8166 11.0018 16.8166 13.1468C16.8166 13.4448 16.8497 13.7355 16.911 14.0143H16.9104C14.1154 13.9379 11.0585 12.4789 9.21826 9.98189C8.08682 12.0214 9.06592 14.2897 10.3499 15.1162C9.91038 15.1507 9.10129 15.0635 8.72046 14.6765C8.69494 16.0302 9.31995 17.8238 11.5989 18.4745C11.16 18.7204 10.3831 18.6498 10.0452 18.5975C10.1638 19.7403 11.7004 21.2342 13.3807 21.2342C12.7818 21.9556 10.5286 23.2641 8 22.8478C9.71726 23.9359 11.7187 24.5661 13.8371 24.5661C19.857 24.5661 24.5321 19.4851 24.2805 13.2171C24.2795 13.2102 24.2795 13.2033 24.2789 13.1957C24.2795 13.1796 24.2805 13.1635 24.2805 13.1468C24.2805 13.1273 24.2789 13.1089 24.2783 13.0901C24.8263 12.6997 25.5616 12.0093 26.087 11.1005C25.7823 11.2753 24.8683 11.6252 24.0178 11.7121C24.5636 11.4053 25.3723 10.4005 25.5721 9.6014Z" fill="white"/>
</svg>
